<svg width="184" height="43" viewBox="0 0 184 43" fill="none" xmlns="http://www.w3.org/2000/svg">
<path d="M16.8782 41.5113C12.7147 41.5113 8.58521 40.0261 5.05845 37.1669L4.43872 36.66L10.8014 29.4041C10.9343 29.2526 11.1275 29.1599 11.3269 29.1429C11.5278 29.1336 11.7287 29.2016 11.8786 29.3361C12.0301 29.4721 12.1212 29.6652 12.1382 29.8677C12.146 30.0702 12.0795 30.2726 11.9466 30.4256L6.65492 36.4576C11.1012 39.7649 16.4686 40.8034 21.51 39.292L27.6702 37.4359L33.832 39.292C38.864 40.8034 44.2314 39.7726 48.6778 36.4653L43.3119 30.3916C43.1774 30.2386 43.111 30.0362 43.1187 29.8337C43.128 29.6312 43.2192 29.4381 43.3691 29.3021C43.5205 29.1676 43.7214 29.0996 43.9208 29.1089C44.1217 29.1166 44.3149 29.2093 44.4478 29.3623L50.8847 36.6523L50.2588 37.1577C45.2932 41.1743 39.1484 42.4818 33.3884 40.7524L27.6625 39.0308L21.9365 40.7524C20.2968 41.2501 18.5921 41.4943 16.8782 41.4943" fill="white"/>
<path d="M16.8782 41.5113C12.7147 41.5113 8.58521 40.0261 5.05845 37.1669L4.43872 36.66L10.8014 29.4041C10.9343 29.2526 11.1275 29.1599 11.3269 29.1429C11.5278 29.1336 11.7287 29.2016 11.8786 29.3361C12.0301 29.4721 12.1212 29.6652 12.1382 29.8677C12.146 30.0702 12.0795 30.2726 11.9466 30.4256L6.65492 36.4576C11.1012 39.7649 16.4686 40.8034 21.51 39.292L27.6702 37.4359L33.832 39.292C38.864 40.8034 44.2314 39.7726 48.6778 36.4653L43.3119 30.3916C43.1774 30.2386 43.111 30.0362 43.1187 29.8337C43.128 29.6312 43.2192 29.4381 43.3691 29.3021C43.5205 29.1676 43.7214 29.0996 43.9208 29.1089C44.1217 29.1166 44.3149 29.2093 44.4478 29.3623L50.8847 36.6523L50.2588 37.1577C45.2932 41.1743 39.1484 42.4818 33.3884 40.7524L27.6625 39.0308L21.9365 40.7524C20.2968 41.2501 18.5921 41.4943 16.8782 41.4943" stroke="white" stroke-width="1.31943" stroke-linejoin="round"/>
<path d="M27.6624 38.2874L15.1225 30.9897C13.7346 29.9697 12.6064 28.6359 11.8368 27.0827C11.0687 25.5311 10.6746 23.8187 10.7009 22.0893L10.8091 14.6139L15.8241 16.2753C15.9246 16.3093 16.008 16.351 16.093 16.419C16.1672 16.4855 16.2352 16.5627 16.2769 16.6555C16.3264 16.7482 16.3511 16.8409 16.3604 16.9414C16.3604 17.0434 16.3604 17.1438 16.3264 17.2458C16.2924 17.3386 16.2429 17.4313 16.1765 17.507C16.1085 17.5827 16.025 17.6507 15.9416 17.6925C15.8504 17.7357 15.7499 17.7605 15.6495 17.7682C15.549 17.7682 15.4486 17.7682 15.3481 17.7265L12.2973 16.7142L12.2216 22.0971C12.2046 23.573 12.5307 25.0412 13.1922 26.3656C13.8444 27.6901 14.8056 28.8384 15.9926 29.7162L27.6701 36.5163L39.4914 29.7162C40.6783 28.8461 41.6473 27.6901 42.2995 26.3656C42.9594 25.0412 43.2855 23.573 43.2701 22.0893L43.1944 16.7049L39.7171 17.8285C39.5239 17.8872 39.3152 17.8702 39.1391 17.7775C38.9644 17.6847 38.8222 17.524 38.7635 17.3293C38.7048 17.1361 38.7218 16.9244 38.813 16.7482C38.9057 16.5705 39.0649 16.4267 39.2565 16.368L44.6826 14.6216L44.7831 22.0723C44.8078 23.8094 44.4153 25.5311 43.6456 27.0827C42.8683 28.6359 41.7401 29.9774 40.343 30.9897L40.2765 31.0314L27.6624 38.2874Z" fill="white" stroke="white" stroke-width="1.31943" stroke-linecap="round" stroke-linejoin="round"/>
<path d="M27.6964 26.0874L17.1207 19.9874L27.6964 35.0743L38.0371 19.9874L27.6964 26.0874Z" fill="white"/>
<path d="M27.6949 0L17.4546 17.2459L27.6779 23.5066L38.0449 17.3293L27.6949 0Z" fill="white"/>
<path d="M6.55433 31.3777C6.37969 31.3777 6.21124 31.319 6.07833 31.2092C5.94387 31.0995 5.85269 30.9481 5.81096 30.7796C5.30868 28.5433 3.87912 26.1478 1.6892 23.8698L0.828369 22.9827L1.99829 22.6041C4.59004 21.7772 6.84797 21.6582 8.91271 22.2579C9.10435 22.3166 9.27126 22.4433 9.36399 22.6211C9.46445 22.7973 9.4799 23.009 9.43045 23.2022C9.37945 23.3969 9.24654 23.5654 9.07035 23.6581C8.89572 23.7601 8.68708 23.7771 8.49389 23.7261C7.01488 23.2949 5.45087 23.2949 3.63649 23.7261C5.54359 25.9284 6.79697 28.2234 7.29925 30.4257C7.32397 30.5339 7.32397 30.6529 7.29925 30.7626C7.27297 30.8723 7.22352 30.9821 7.14779 31.0655C7.07361 31.1582 6.98861 31.2262 6.88042 31.2772C6.77997 31.3282 6.66406 31.353 6.55433 31.353" fill="white"/>
<path d="M6.55433 31.3777C6.37969 31.3777 6.21124 31.319 6.07833 31.2092C5.94387 31.0995 5.85269 30.9481 5.81096 30.7796C5.30868 28.5433 3.87912 26.1478 1.6892 23.8698L0.828369 22.9827L1.99829 22.6041C4.59004 21.7772 6.84797 21.6582 8.91272 22.2579C9.10435 22.3166 9.27126 22.4433 9.36399 22.6211C9.46445 22.7973 9.4799 23.009 9.43045 23.2022C9.37945 23.3969 9.24654 23.5654 9.07035 23.6581C8.89572 23.7601 8.68708 23.7771 8.49389 23.7261C7.01488 23.2949 5.45087 23.2949 3.63649 23.7261C5.54359 25.9284 6.79697 28.2234 7.29925 30.4257C7.32397 30.5339 7.32397 30.6529 7.29925 30.7626C7.27297 30.8723 7.22352 30.9821 7.14779 31.0655C7.07361 31.1582 6.98861 31.2262 6.88042 31.2772C6.77997 31.3282 6.66406 31.353 6.55433 31.353" stroke="white" stroke-width="1.31943" stroke-linecap="round" stroke-linejoin="round"/>
<path d="M48.8446 31.3776C48.7287 31.3776 48.619 31.3528 48.5185 31.3018C48.4181 31.2508 48.3269 31.1751 48.2512 31.0917C48.177 31.0067 48.126 30.8969 48.1012 30.7872C48.0765 30.6775 48.0765 30.56 48.1012 30.4503C48.602 28.248 49.8569 25.953 51.7625 23.7507C49.9481 23.3195 48.3856 23.3195 46.9051 23.7507C46.8139 23.7754 46.7134 23.7847 46.613 23.7754C46.5125 23.7677 46.4213 23.7337 46.3286 23.6827C46.2451 23.6332 46.1617 23.5652 46.103 23.4895C46.0442 23.4138 45.9948 23.3195 45.97 23.219C45.9438 23.1263 45.936 23.0243 45.9438 22.9239C45.953 22.8219 45.9855 22.7291 46.0365 22.6364C46.086 22.5529 46.154 22.4679 46.2281 22.4092C46.3039 22.3505 46.395 22.2995 46.4878 22.2748C48.5525 21.6751 50.8182 21.7848 53.4007 22.6194L54.5721 22.9996L53.7097 23.8851C51.5198 26.1632 50.0903 28.5509 49.5895 30.7949C49.5478 30.9649 49.4551 31.1164 49.3222 31.2261C49.1877 31.3358 49.0208 31.3946 48.8446 31.3946" fill="white"/>
<path d="M48.8446 31.3776C48.7287 31.3776 48.619 31.3528 48.5185 31.3018C48.4181 31.2508 48.3269 31.1751 48.2512 31.0917C48.177 31.0067 48.126 30.8969 48.1012 30.7872C48.0765 30.6775 48.0765 30.56 48.1012 30.4503C48.602 28.248 49.8569 25.953 51.7625 23.7507C49.9481 23.3195 48.3856 23.3195 46.9051 23.7507C46.8139 23.7754 46.7134 23.7847 46.613 23.7754C46.5125 23.7677 46.4213 23.7337 46.3286 23.6827C46.2451 23.6332 46.1617 23.5652 46.103 23.4895C46.0442 23.4138 45.9948 23.3195 45.97 23.219C45.9438 23.1263 45.936 23.0243 45.9438 22.9239C45.953 22.8219 45.9855 22.7291 46.0365 22.6364C46.086 22.5529 46.154 22.4679 46.2281 22.4092C46.3039 22.3505 46.395 22.2995 46.4878 22.2748C48.5525 21.6751 50.8182 21.7848 53.4007 22.6194L54.5721 22.9996L53.7097 23.8851C51.5198 26.1632 50.0903 28.5509 49.5895 30.7949C49.5478 30.9649 49.4551 31.1164 49.3222 31.2261C49.1877 31.3358 49.0208 31.3946 48.8446 31.3946" stroke="white" stroke-width="1.31943" stroke-miterlimit="10"/>
<path d="M15.566 14.7144C15.4579 14.7144 15.3574 14.6897 15.2569 14.6464C15.1565 14.6047 15.073 14.5367 14.9973 14.4609C14.9231 14.3775 14.8721 14.2848 14.8397 14.1828C14.8057 14.0823 14.7979 13.9726 14.8057 13.8629L15.4069 8.40271L19.1948 11.0099C19.3524 11.1289 19.4622 11.3051 19.5039 11.4998C19.5363 11.6946 19.5039 11.897 19.3864 12.0655C19.2783 12.2339 19.1021 12.3437 18.9104 12.3854C18.7172 12.4287 18.5086 12.3854 18.3494 12.2757L16.6448 11.1026L16.3187 14.0313C16.3017 14.2168 16.2105 14.3945 16.0683 14.5197C15.9261 14.6464 15.7499 14.7144 15.5583 14.7144" fill="white"/>
<path d="M15.566 14.7144C15.4579 14.7144 15.3574 14.6897 15.2569 14.6464C15.1565 14.6047 15.073 14.5367 14.9973 14.4609C14.9231 14.3775 14.8721 14.2848 14.8397 14.1828C14.8057 14.0823 14.7979 13.9726 14.8057 13.8629L15.4069 8.40271L19.1948 11.0099C19.3524 11.1289 19.4622 11.3051 19.5039 11.4998C19.5363 11.6946 19.5039 11.897 19.3864 12.0655C19.2783 12.2339 19.1021 12.3437 18.9104 12.3854C18.7172 12.4287 18.5086 12.3854 18.3494 12.2757L16.6448 11.1026L16.3187 14.0313C16.3017 14.2168 16.2105 14.3945 16.0683 14.5197C15.9261 14.6464 15.7499 14.7144 15.5583 14.7144" stroke="white" stroke-width="1.31943" stroke-linejoin="round"/>
<path d="M39.5825 14.7144C39.3986 14.7144 39.2239 14.6464 39.0818 14.5197C38.9396 14.3945 38.8561 14.2245 38.8314 14.039L38.4543 11.0872L36.7327 12.2679C36.5657 12.3854 36.3648 12.4287 36.1639 12.3854C35.963 12.3514 35.7884 12.2339 35.6786 12.0655C35.5627 11.897 35.521 11.6946 35.5627 11.4921C35.6045 11.2896 35.7126 11.1119 35.8796 11.0022L39.6505 8.40271L40.3351 13.8459C40.3521 13.9556 40.3351 14.0653 40.3104 14.1658C40.2764 14.2678 40.227 14.3682 40.1512 14.4439C40.077 14.5289 39.992 14.5877 39.8931 14.6387C39.7927 14.6804 39.683 14.7067 39.5825 14.7067" fill="white"/>
<path d="M39.5825 14.7144C39.3986 14.7144 39.2239 14.6464 39.0818 14.5197C38.9396 14.3945 38.8561 14.2245 38.8314 14.039L38.4543 11.0872L36.7327 12.2679C36.5657 12.3854 36.3648 12.4287 36.1639 12.3854C35.963 12.3514 35.7884 12.2339 35.6786 12.0655C35.5627 11.897 35.521 11.6946 35.5627 11.4921C35.6045 11.2896 35.7126 11.1119 35.8796 11.0022L39.6505 8.40271L40.3351 13.8459C40.3521 13.9556 40.3351 14.0653 40.3104 14.1658C40.2764 14.2678 40.227 14.3682 40.1512 14.4439C40.077 14.5289 39.992 14.5877 39.8931 14.6387C39.7927 14.6804 39.683 14.7067 39.5825 14.7067" stroke="white" stroke-width="1.31943" stroke-linecap="round" stroke-linejoin="round"/>
<path d="M116.222 11.5509V21.0509H105.013V11.5509H67.3361V34.1039H84.548V30.5602H71.9262V24.5947H84.5573V21.0509H71.9262V15.0947H90.2245V34.1039H94.8053V15.0947H100.432V34.1039H105.021V24.5947H116.232V34.0947H120.812V11.5509H116.232H116.222Z" fill="white"/>
<path d="M123.838 34.1039H127.467V11.4751H123.838V34.1039Z" fill="white"/>
<path d="M130.668 18.7804H134.187V20.1992C135.416 18.9752 136.796 18.3585 138.333 18.3585C140.098 18.3585 141.477 18.9242 142.463 20.0462C143.316 20.9997 143.743 22.5607 143.743 24.7212V34.1115H140.224V25.5558C140.224 24.0458 140.013 22.9996 139.596 22.4262C139.187 21.8358 138.451 21.5484 137.381 21.5484C136.219 21.5484 135.391 21.9363 134.898 22.7121C134.422 23.4802 134.179 24.8139 134.179 26.7211V34.1115H130.66V18.7804H130.668Z" fill="white"/>
<path d="M148.809 26.392C148.809 27.8602 149.201 29.0579 149.979 29.9774C150.781 30.914 151.784 31.3776 153.005 31.3776C154.301 31.3776 155.354 30.931 156.156 30.0285C156.959 29.0919 157.36 27.9112 157.36 26.477C157.36 25.0428 156.959 23.8528 156.156 22.9239C155.354 22.0136 154.317 21.5577 153.039 21.5577C151.835 21.5577 150.822 22.0214 150.013 22.9409C149.209 23.8775 148.809 25.0258 148.809 26.3997V26.392ZM157.134 11.4751H160.655V34.1039H157.134V32.5012C155.755 33.8674 154.191 34.5428 152.445 34.5428C150.363 34.5428 148.642 33.7747 147.271 32.2477C145.908 30.6868 145.231 28.738 145.231 26.392C145.231 24.0459 145.908 22.1991 147.271 20.6629C148.625 19.119 150.322 18.3509 152.369 18.3509C154.15 18.3509 155.738 19.085 157.143 20.5532V11.4751H157.134Z" fill="white"/>
<path d="M163.161 34.1039H166.665V18.7806H163.161V34.1039ZM162.636 13.7609C162.636 13.1458 162.861 12.6049 163.303 12.1582C163.512 11.9388 163.764 11.7703 164.039 11.6513C164.316 11.5339 164.608 11.4751 164.909 11.4829C165.544 11.4829 166.079 11.71 166.53 12.1582C166.974 12.5971 167.2 13.1365 167.2 13.7779C167.2 14.4192 166.974 14.9679 166.53 15.4145C166.322 15.634 166.079 15.8024 165.795 15.9214C165.52 16.0389 165.218 16.0976 164.926 16.0899C164.625 16.0899 164.323 16.0389 164.048 15.9214C163.772 15.8024 163.512 15.634 163.303 15.4145C162.852 14.9679 162.636 14.4115 162.636 13.7609Z" fill="white"/>
<path d="M172.065 26.392C172.065 27.8602 172.457 29.058 173.235 29.9775C174.037 30.9141 175.04 31.3777 176.261 31.3777C177.557 31.3777 178.61 30.9311 179.404 30.0285C180.206 29.092 180.608 27.9097 180.608 26.4755C180.608 25.0413 180.206 23.8528 179.404 22.924C178.602 22.0122 177.565 21.5578 176.285 21.5578C175.082 21.5578 174.071 22.0214 173.259 22.941C172.457 23.8775 172.056 25.0336 172.056 26.3998L172.065 26.392ZM180.39 18.7806H183.909V34.1039H180.39V32.4997C178.944 33.8675 177.389 34.5413 175.734 34.5413C173.637 34.5413 171.898 33.7747 170.527 32.2478C169.164 30.6869 168.487 28.7365 168.487 26.392C168.487 24.046 169.164 22.1822 170.527 20.646C171.889 19.1098 173.595 18.351 175.643 18.351C177.406 18.351 178.995 19.0851 180.4 20.5532V18.7729L180.39 18.7806Z" fill="white"/>
</svg>
