<svg width="28" height="18" viewBox="0 0 28 18" fill="none" xmlns="http://www.w3.org/2000/svg">
<g clip-path="url(#clip0_99_984)">
<path d="M18.9512 5.76449C18.9283 5.78874 18.8985 5.80543 18.8658 5.81235C18.8331 5.81926 18.7991 5.81608 18.7683 5.80322C18.7374 5.79035 18.7112 5.76842 18.6932 5.74032C18.6751 5.71223 18.666 5.67931 18.6671 5.64592C18.6671 5.50597 18.6671 5.35207 18.6603 5.20649C18.4949 -0.835432 9.45106 -0.835432 9.28569 5.20649C9.28182 5.35294 9.27987 5.49942 9.27984 5.64592C9.27984 5.79374 9.10029 5.86867 8.99566 5.76449C8.89306 5.66212 8.78641 5.55772 8.68201 5.45827C4.31769 1.30364 -2.07299 7.74764 2.05261 12.1318C2.15274 12.238 2.25444 12.3433 2.35771 12.4479C7.33539 17.4593 13.9718 17.46 13.9731 17.46C13.9742 17.46 20.6115 17.4595 25.5894 12.4479C25.6934 12.3437 25.7951 12.2386 25.8945 12.132C30.0201 7.74269 23.6254 1.30364 19.2651 5.45827C19.1581 5.55791 19.0535 5.66002 18.9512 5.76449Z" fill="white" stroke="white" stroke-width="1.64381" stroke-miterlimit="10"/>
<path fill-rule="evenodd" clip-rule="evenodd" d="M17.8181 10.3057C17.6781 10.3057 17.6295 10.5094 17.7191 10.6171C17.8832 10.8153 17.9727 11.0647 17.9722 11.3221C17.9722 11.9305 17.4824 12.4237 16.878 12.4237C16.2737 12.4237 15.7839 11.9305 15.7839 11.3221C15.7839 11.2894 15.7418 11.2732 15.7226 11.2996C15.5501 11.5383 15.4335 11.8063 15.3858 12.0875C15.3588 12.2459 15.2308 12.3771 15.0701 12.3771H14.9815C14.7718 12.3771 14.5988 12.2061 14.6296 11.9986C14.842 10.5771 16.2332 9.54614 17.8181 9.54614C19.4028 9.54614 20.7942 10.5771 21.0063 11.9986C21.0374 12.2059 20.8646 12.3771 20.6546 12.3771C20.445 12.3771 20.2789 12.2052 20.2332 12.0004C20.0258 11.0687 19.0644 10.3057 17.8181 10.3057ZM8.10212 11.3221C8.10212 11.2793 8.04677 11.2561 8.0209 11.2903C7.8364 11.5327 7.7104 11.8069 7.6573 12.0963C7.6258 12.2673 7.48787 12.409 7.31417 12.409H7.24892C7.03945 12.409 6.86642 12.238 6.89725 12.0306C7.10942 10.6086 8.50082 9.57832 10.0855 9.57832C11.6704 9.57832 13.062 10.6084 13.274 12.0308C13.305 12.2378 13.132 12.4093 12.9223 12.4093C12.7126 12.4093 12.5465 12.2371 12.5009 12.0324C12.2936 11.1002 11.332 10.3379 10.0857 10.3379C9.97232 10.3379 9.93092 10.4979 10.0067 10.582C10.1898 10.785 10.2908 11.0488 10.2902 11.3221C10.2902 11.9305 9.80042 12.4237 9.19607 12.4237C8.59195 12.4237 8.10212 11.9305 8.10212 11.3221ZM15.7517 13.8587C15.5676 13.7581 15.3386 13.8301 15.1903 13.9786C14.9045 14.2644 14.4714 14.4601 13.9701 14.4601C13.4677 14.4601 13.035 14.2666 12.7499 13.9804C12.6019 13.8319 12.3731 13.7588 12.1888 13.8587C12.0043 13.9586 11.9336 14.1917 12.0659 14.3546C12.4984 14.8879 13.1993 15.2193 13.9701 15.2193C14.7414 15.2193 15.4409 14.884 15.8729 14.3553C16.0055 14.1926 15.9357 13.9593 15.7514 13.8587H15.7517Z" fill="#23272D"/>
</g>
<defs>
<clipPath id="clip0_99_984">
<rect width="27.9" height="18" fill="white"/>
</clipPath>
</defs>
</svg>
