<svg width="188" height="36" viewBox="0 0 188 36" fill="none" xmlns="http://www.w3.org/2000/svg">
<path d="M165.011 18.1527C164.04 17.52 162.982 17.0618 161.978 16.4945C161.324 16.1345 160.625 15.8073 160.058 15.3382C159.098 14.5527 159.295 12.9927 160.298 12.3164C161.749 11.3564 164.138 11.8909 164.4 13.8545C164.4 13.8982 164.444 13.9309 164.487 13.9309H166.669C166.724 13.9309 166.767 13.8873 166.745 13.8218C166.726 13.2041 166.574 12.5979 166.299 12.0444C166.024 11.4909 165.633 11.0032 165.153 10.6145C164.265 9.92983 163.176 9.5578 162.055 9.55637C156.295 9.55637 155.76 15.6545 158.869 17.5745C159.229 17.7927 162.273 19.32 163.342 19.9855C164.433 20.6509 164.76 21.8727 164.302 22.8218C163.865 23.7055 162.774 24.3164 161.662 24.24C160.462 24.1745 159.524 23.52 159.196 22.5055C159.142 22.32 159.109 21.96 159.109 21.8182C159.107 21.7958 159.097 21.775 159.081 21.7591C159.065 21.7432 159.044 21.7333 159.022 21.7309H156.655C156.622 21.7309 156.578 21.7745 156.578 21.8182C156.578 23.52 157.004 24.4691 158.16 25.3309C159.251 26.1491 160.451 26.4982 161.673 26.4982C164.913 26.4982 166.582 24.6655 166.909 22.7782C167.215 20.9236 166.669 19.2545 165.011 18.1527ZM62.2472 9.87273H60.0436C60.0273 9.87472 60.0118 9.88076 59.9985 9.89029C59.9851 9.89982 59.9744 9.91253 59.9672 9.92728L58.0254 16.32C58.0254 16.3431 58.0162 16.3653 57.9999 16.3817C57.9835 16.3981 57.9613 16.4073 57.9381 16.4073C57.915 16.4073 57.8928 16.3981 57.8764 16.3817C57.8601 16.3653 57.8509 16.3431 57.8509 16.32L55.9091 9.92728C55.8981 9.88364 55.8654 9.87273 55.8218 9.87273H52.2109C52.1672 9.87273 52.1236 9.91637 52.1236 9.94909V26.2691C52.1236 26.3127 52.1672 26.3564 52.2109 26.3564H54.5781C54.6218 26.3564 54.6654 26.3127 54.6654 26.2691V13.8545C54.6654 13.7564 54.8072 13.7455 54.8291 13.8327L56.7927 20.2691L56.9345 20.7055C56.9345 20.76 56.9672 20.7709 57.0109 20.7709H58.8327C58.8763 20.7709 58.8981 20.7382 58.9091 20.7164L59.0509 20.2582L61.0145 13.8218C61.0363 13.7345 61.1781 13.7564 61.1781 13.8545V26.2582C61.1781 26.3018 61.2218 26.3455 61.2654 26.3455H63.6327C63.6763 26.3455 63.72 26.3018 63.72 26.2582V9.94909C63.72 9.91637 63.6763 9.87273 63.6327 9.87273H62.2472ZM128.771 9.87273C128.753 9.87286 128.735 9.87802 128.72 9.88765C128.704 9.89728 128.692 9.911 128.684 9.92728L126.742 16.32C126.742 16.3431 126.733 16.3653 126.716 16.3817C126.7 16.3981 126.678 16.4073 126.654 16.4073C126.631 16.4073 126.609 16.3981 126.593 16.3817C126.576 16.3653 126.567 16.3431 126.567 16.32L124.625 9.92728C124.625 9.88364 124.593 9.87273 124.549 9.87273H120.949C120.905 9.87273 120.862 9.91637 120.862 9.94909V26.2691C120.862 26.3127 120.905 26.3564 120.949 26.3564H123.316C123.349 26.3564 123.393 26.3127 123.393 26.2691V13.8545C123.393 13.7564 123.535 13.7455 123.567 13.8327L125.531 20.2691L125.662 20.7055C125.684 20.76 125.705 20.7709 125.749 20.7709H127.56C127.578 20.7697 127.595 20.7641 127.61 20.7546C127.626 20.7451 127.638 20.7319 127.647 20.7164L127.789 20.2582L129.753 13.8218C129.775 13.7345 129.916 13.7564 129.916 13.8545V26.2582C129.916 26.3018 129.96 26.3455 130.004 26.3455H132.371C132.414 26.3455 132.458 26.3018 132.458 26.2582V9.94909C132.458 9.91637 132.414 9.87273 132.371 9.87273H128.771ZM98.2363 9.87273H87.0545C87.0218 9.87273 86.9781 9.91637 86.9781 9.94909V12C86.9781 12.0436 87.0218 12.0873 87.0545 12.0873H91.3854V26.2691C91.3854 26.3236 91.429 26.3673 91.4618 26.3673H93.8291C93.8727 26.3673 93.9163 26.3236 93.9163 26.28V12.0764H98.2363C98.28 12.0764 98.3236 12.0327 98.3236 11.9891V9.94909C98.3236 9.91637 98.3018 9.87273 98.2363 9.87273ZM112.2 26.3564H114.36C114.415 26.3564 114.458 26.2909 114.436 26.2473L109.985 9.87273C109.985 9.82909 109.953 9.80727 109.909 9.80727H106.8C106.783 9.81029 106.766 9.81796 106.753 9.82948C106.739 9.841 106.729 9.85595 106.724 9.87273L102.273 26.2364C102.251 26.2909 102.295 26.3455 102.349 26.3455H104.509C104.553 26.3455 104.575 26.3236 104.596 26.2909L105.884 21.5345C105.895 21.4909 105.927 21.48 105.971 21.48H110.727C110.771 21.48 110.804 21.5018 110.815 21.5345L112.102 26.2909C112.124 26.3236 112.167 26.3564 112.189 26.3564H112.2ZM106.549 19.1455L108.273 12.7636C108.273 12.7405 108.282 12.7183 108.298 12.7019C108.315 12.6856 108.337 12.6764 108.36 12.6764C108.383 12.6764 108.405 12.6856 108.422 12.7019C108.438 12.7183 108.447 12.7405 108.447 12.7636L110.171 19.1455C110.193 19.2 110.149 19.2545 110.095 19.2545H106.636C106.571 19.2545 106.527 19.2 106.549 19.1455ZM148.931 26.3564H151.091C151.145 26.3564 151.189 26.2909 151.178 26.2473L146.727 9.86182C146.705 9.81818 146.684 9.79637 146.64 9.79637H143.553C143.533 9.79742 143.515 9.80421 143.499 9.81586C143.484 9.82751 143.472 9.8435 143.465 9.86182L139.015 26.2255C139.004 26.28 139.047 26.3345 139.102 26.3345H141.251C141.294 26.3345 141.327 26.3127 141.338 26.28L142.625 21.5236C142.647 21.48 142.669 21.4691 142.713 21.4691H147.48C147.513 21.4691 147.545 21.4909 147.556 21.5236L148.854 26.28C148.854 26.3127 148.898 26.3455 148.931 26.3455V26.3564ZM143.28 19.1455L145.014 12.7636C145.021 12.7469 145.032 12.7325 145.046 12.7224C145.061 12.7122 145.079 12.7067 145.096 12.7067C145.114 12.7067 145.132 12.7122 145.146 12.7224C145.161 12.7325 145.172 12.7469 145.178 12.7636L146.913 19.1455C146.913 19.2 146.88 19.2545 146.825 19.2545H143.367C143.313 19.2545 143.258 19.2 143.28 19.1455ZM73.3309 23.9345V18.8727C73.3309 18.8291 73.3636 18.7855 73.4072 18.7855H79.7127C79.7563 18.7855 79.8 18.7418 79.8 18.7091V16.6691C79.7976 16.6468 79.7876 16.6259 79.7718 16.61C79.7559 16.5941 79.735 16.5842 79.7127 16.5818H73.4181C73.3745 16.5818 73.3418 16.5382 73.3418 16.4945V12.1745C73.3418 12.1309 73.3745 12.0873 73.4181 12.0873H80.5963C80.64 12.0873 80.6836 12.0436 80.6836 12V9.97091C80.6812 9.94858 80.6713 9.92773 80.6554 9.91185C80.6395 9.89596 80.6187 9.88601 80.5963 9.88364H70.8872C70.8649 9.88601 70.844 9.89596 70.8282 9.91185C70.8123 9.92773 70.8023 9.94858 70.8 9.97091V26.2691C70.8 26.3127 70.8436 26.3564 70.8872 26.3564H80.8909C80.9345 26.3564 80.9781 26.3127 80.9781 26.2691V24.1091C80.9758 24.0868 80.9658 24.0659 80.9499 24.05C80.934 24.0341 80.9132 24.0242 80.8909 24.0218H73.4072C73.3636 24.0109 73.3418 23.9782 73.3418 23.9236L73.3309 23.9345ZM186.633 26.2145L178.451 17.7709C178.438 17.7554 178.432 17.7362 178.432 17.7164C178.432 17.6965 178.438 17.6773 178.451 17.6618L185.814 10.0255C185.833 10.0168 185.848 10.001 185.855 9.98155C185.862 9.96211 185.861 9.94063 185.853 9.92182C185.844 9.90301 185.828 9.88843 185.809 9.88127C185.789 9.87411 185.768 9.87496 185.749 9.88364H182.738C182.705 9.88364 182.695 9.89455 182.684 9.91637L176.433 16.3855C176.421 16.3953 176.406 16.4018 176.391 16.4042C176.376 16.4067 176.36 16.4051 176.346 16.3996C176.331 16.394 176.319 16.3847 176.309 16.3727C176.299 16.3606 176.293 16.3462 176.291 16.3309V9.97091C176.288 9.94858 176.279 9.92773 176.263 9.91185C176.247 9.89596 176.226 9.88601 176.204 9.88364H173.836C173.814 9.88601 173.793 9.89596 173.777 9.91185C173.761 9.92773 173.751 9.94858 173.749 9.97091V26.28C173.749 26.3236 173.793 26.3673 173.836 26.3673H176.204C176.247 26.3673 176.291 26.3236 176.291 26.28V19.1018C176.291 19.0255 176.389 18.9927 176.433 19.0473L183.524 26.3345C183.535 26.349 183.55 26.3602 183.567 26.3673H186.589C186.644 26.3564 186.698 26.2582 186.633 26.2145Z" fill="white"/>
<path d="M35.9563 1.09091L21.6218 11.6945L24.2945 5.44364L35.9563 1.09091Z" fill="#E17726" stroke="#E17726" stroke-width="0.181818" stroke-linecap="round" stroke-linejoin="round"/>
<path d="M2.9018 1.09091L17.1054 11.7818L14.5636 5.45455L2.9018 1.09091ZM30.7963 25.6691L26.9782 31.4946L35.1491 33.7418L37.4836 25.8L30.7963 25.6691ZM1.38544 25.8L3.70907 33.7418L11.8582 31.4946L8.0618 25.6691L1.38544 25.8Z" fill="#E27625" stroke="#E27625" stroke-width="0.181818" stroke-linecap="round" stroke-linejoin="round"/>
<path d="M11.4218 15.8291L9.15271 19.2545L17.2254 19.6254L16.9636 10.9309L11.4218 15.84V15.8291ZM27.4363 15.84L21.8073 10.8218L21.6218 19.6254L29.6945 19.2545L27.4363 15.84ZM11.8582 31.4945L16.7563 29.1382L12.5454 25.8654L11.8582 31.4945ZM22.1127 29.1273L26.9782 31.4945L26.3236 25.8545L22.1127 29.1273Z" fill="#E27625" stroke="#E27625" stroke-width="0.181818" stroke-linecap="round" stroke-linejoin="round"/>
<path d="M26.9782 31.4945L22.1127 29.1382L22.5054 32.3018L22.4618 33.6436L26.9782 31.4945ZM11.8582 31.4945L16.3963 33.6436L16.3636 32.3018L16.7563 29.1382L11.8582 31.4945Z" fill="#D5BFB2" stroke="#D5BFB2" stroke-width="0.181818" stroke-linecap="round" stroke-linejoin="round"/>
<path d="M16.4727 23.76L12.4363 22.5818L15.2945 21.2727L16.4836 23.76H16.4727ZM22.3745 23.76L23.5745 21.2618L26.4436 22.5709L22.3745 23.7709V23.76Z" fill="#233447" stroke="#233447" stroke-width="0.181818" stroke-linecap="round" stroke-linejoin="round"/>
<path d="M11.8582 31.4945L12.5673 25.6691L8.0618 25.8L11.8582 31.4945ZM26.2909 25.6691L26.9782 31.4945L30.7963 25.8L26.2909 25.6691ZM29.7054 19.2545L21.6327 19.6255L22.3745 23.7709L23.5745 21.2618L26.4436 22.5709L29.7054 19.2545ZM12.4363 22.5818L15.2945 21.2727L16.4836 23.76L17.2363 19.6145L9.16362 19.2545L12.4363 22.5818Z" fill="#CC6228" stroke="#CC6228" stroke-width="0.181818" stroke-linecap="round" stroke-linejoin="round"/>
<path d="M9.1636 19.2545L12.5454 25.8545L12.4363 22.5818L9.1636 19.2545ZM26.4436 22.5818L26.3127 25.8545L29.6945 19.2545L26.4436 22.5818ZM17.2363 19.6255L16.4727 23.7709L17.4327 28.6582L17.6509 22.2109L17.2363 19.6255ZM21.6218 19.6255L21.2291 22.2L21.4254 28.6582L22.3745 23.76L21.6218 19.6145V19.6255Z" fill="#E27525" stroke="#E27525" stroke-width="0.181818" stroke-linecap="round" stroke-linejoin="round"/>
<path d="M22.3745 23.76L21.4254 28.6582L22.1127 29.1382L26.3127 25.8655L26.4436 22.5818L22.3745 23.76ZM12.4363 22.5818L12.5454 25.8545L16.7563 29.1273L17.4327 28.6582L16.4836 23.76L12.4254 22.5818H12.4363Z" fill="#F5841F" stroke="#F5841F" stroke-width="0.181818" stroke-linecap="round" stroke-linejoin="round"/>
<path d="M22.4727 33.6436L22.5054 32.3018L22.1345 31.9964H16.7236L16.3636 32.3018L16.3963 33.6436L11.8582 31.4945L13.4509 32.8036L16.6691 35.0182H22.1782L25.4072 32.7927L26.9782 31.4945L22.4618 33.6436H22.4727Z" fill="#C0AC9D" stroke="#C0AC9D" stroke-width="0.181818" stroke-linecap="round" stroke-linejoin="round"/>
<path d="M22.1127 29.1273L21.4254 28.6582H17.4327L16.7563 29.1382L16.3636 32.3018L16.7236 31.9964H22.1345L22.5054 32.3018L22.1127 29.1382V29.1273Z" fill="#161616" stroke="#161616" stroke-width="0.181818" stroke-linecap="round" stroke-linejoin="round"/>
<path d="M36.5672 12.3818L37.7672 6.54546L35.9563 1.09091L22.1018 11.3455L27.4363 15.8291L34.9636 18.0218L36.6218 16.0909L35.9018 15.5673L37.0472 14.52L36.1745 13.8436L37.32 12.9709L36.5563 12.3818H36.5672ZM1.09088 6.53455L2.3127 12.3818L1.52724 12.96L2.69452 13.8327L1.82179 14.52L2.95634 15.5673L2.23634 16.0909L3.89452 18.0218L11.4218 15.84L16.7563 11.3345L2.90179 1.09091L1.09088 6.53455Z" fill="#763E1A" stroke="#763E1A" stroke-width="0.181818" stroke-linecap="round" stroke-linejoin="round"/>
<path d="M34.9636 18.0218L27.4363 15.84L29.7054 19.2545L26.3236 25.8545L30.7963 25.8H37.4836L34.9636 18.0218ZM11.4218 15.8291L3.89453 18.0218L1.38544 25.8H8.07271L12.5454 25.8545L9.16362 19.2545L11.4327 15.8291H11.4218ZM21.6218 19.6255L22.1127 11.3345L24.2945 5.44363H14.5636L16.7454 11.3345L17.2363 19.6255L17.4218 22.2218V28.6582H21.4254L21.4473 22.2218L21.6218 19.6255Z" fill="#F5841F" stroke="#F5841F" stroke-width="0.181818" stroke-linecap="round" stroke-linejoin="round"/>
</svg>
